<svg width="20" height="23" viewBox="0 0 20 23" fill="none" xmlns="http://www.w3.org/2000/svg">
<path d="M3.2004 8.4843C3.19913 7.58618 3.37557 6.69668 3.71955 5.86703C4.06353 5.03739 4.56825 4.28399 5.20464 3.65024C5.84103 3.01649 6.59651 2.51491 7.42758 2.17439C8.25865 1.83386 9.14888 1.66112 10.047 1.66612C13.797 1.69453 16.7989 4.81006 16.7989 8.56953V9.24188C16.7989 12.632 17.5091 14.6017 18.1341 15.6813C18.2005 15.7962 18.2355 15.9266 18.2356 16.0594C18.2357 16.1922 18.201 16.3226 18.1348 16.4377C18.0686 16.5528 17.9733 16.6485 17.8586 16.7151C17.7438 16.7818 17.6135 16.8172 17.4807 16.8176H2.51858C2.38582 16.8172 2.25552 16.7818 2.14073 16.7151C2.02593 16.6485 1.93068 16.5528 1.8645 16.4377C1.79833 16.3226 1.76355 16.1922 1.76367 16.0594C1.76379 15.9266 1.79879 15.7962 1.86517 15.6813C2.49017 14.6017 3.2004 12.632 3.2004 9.24188V8.4843Z" stroke="#262339" stroke-width="1.5" stroke-linecap="round" stroke-linejoin="round"/>
<path d="M6.9707 16.8174V17.575C6.9707 18.3786 7.28997 19.1494 7.85826 19.7177C8.42655 20.286 9.19732 20.6053 10.001 20.6053C10.8047 20.6053 11.5755 20.286 12.1438 19.7177C12.712 19.1494 13.0313 18.3786 13.0313 17.575V16.8174" stroke="#262339" stroke-width="1.5" stroke-linecap="round" stroke-linejoin="round"/>
</svg>
