<svg width="16" height="16" viewBox="0 0 16 16" fill="none" xmlns="http://www.w3.org/2000/svg">
<g clip-path="url(#clip0_3399_38)">
<path d="M15.8263 14.9878L12.1175 11.2797C13.1925 9.98917 13.7285 8.33386 13.6141 6.65815C13.4997 4.98244 12.7436 3.41534 11.5032 2.28286C10.2628 1.15038 8.6336 0.539696 6.95442 0.577859C5.27524 0.616021 3.67542 1.30009 2.48775 2.48775C1.30009 3.67542 0.616021 5.27524 0.577859 6.95442C0.539696 8.6336 1.15038 10.2628 2.28286 11.5032C3.41534 12.7436 4.98244 13.4997 6.65815 13.6141C8.33386 13.7285 9.98917 13.1925 11.2797 12.1175L14.9878 15.8263C15.0429 15.8814 15.1082 15.925 15.1802 15.9548C15.2521 15.9846 15.3292 16 15.4071 16C15.4849 16 15.562 15.9846 15.634 15.9548C15.7059 15.925 15.7712 15.8814 15.8263 15.8263C15.8814 15.7712 15.925 15.7059 15.9548 15.634C15.9846 15.562 16 15.4849 16 15.4071C16 15.3292 15.9846 15.2521 15.9548 15.1802C15.925 15.1082 15.8814 15.0429 15.8263 14.9878ZM1.7777 7.11093C1.7777 6.05612 2.09049 5.02499 2.67652 4.14795C3.26254 3.2709 4.09547 2.58733 5.06999 2.18367C6.04451 1.78001 7.11684 1.6744 8.15139 1.88018C9.18593 2.08597 10.1362 2.59391 10.8821 3.33977C11.628 4.08563 12.1359 5.03592 12.3417 6.07047C12.5475 7.10501 12.4418 8.17735 12.0382 9.15186C11.6345 10.1264 10.951 10.9593 10.0739 11.5453C9.19686 12.1314 8.16574 12.4442 7.11093 12.4442C5.69695 12.4426 4.34134 11.8802 3.3415 10.8804C2.34167 9.88052 1.77927 8.52491 1.7777 7.11093Z" fill="#9DA4AD"/>
</g>
<defs>
<clipPath id="clip0_3399_38">
<rect width="16" height="16" fill="white"/>
</clipPath>
</defs>
</svg>
